<svg width="580" height="307" viewBox="0 0 580 307" fill="none" xmlns="http://www.w3.org/2000/svg">
<path d="M285.891 188.884C290.004 192.997 293.038 198.418 294.521 204.284C296.139 210.123 296.247 216.352 295.101 222.178C294.966 222.866 294.737 223.526 294.575 224.214C294.386 224.888 294.251 225.562 293.968 226.25C293.469 227.612 292.997 228.974 292.35 230.282C291.19 232.952 289.667 235.46 288.021 237.887C284.623 242.688 280.47 247.07 275.723 250.833C271.004 254.622 265.812 257.912 260.324 260.69C257.6 262.119 254.768 263.346 251.896 264.506C249.064 265.76 246.098 266.677 243.185 267.743C237.265 269.576 231.238 271.127 225.102 272.139C218.967 273.082 212.777 273.811 206.534 273.918C200.304 274.053 194.06 273.891 187.844 273.204L185.511 272.975L183.192 272.651C181.641 272.422 180.09 272.233 178.553 271.99C175.479 271.41 172.39 270.911 169.343 270.17C168.102 269.886 166.862 269.576 165.635 269.212L161.98 268.053L162.21 268.093C154.914 266.097 147.727 263.643 140.715 260.744C133.717 257.804 126.907 254.433 120.299 250.684C107.071 243.214 94.8133 234.017 83.7828 223.594C77.418 217.539 71.4849 211.039 66.0775 204.122L58.2294 193.469L51.0286 182.358C41.8455 167.268 34.3885 151.127 28.4418 134.42C16.5618 100.964 10.6555 65.4861 8.3092 29.9001C8.053 27.1223 7.99902 23.8454 7.78326 20.5012C7.60796 17.157 7.33832 13.759 7.14954 10.7115C6.70454 4.6164 5.89547 -0.0494256 4.3717 0.125875C1.28372 0.476476 -0.860405 13.3948 0.366699 33.1633L0.987061 42.1171L1.86346 51.071L2.30853 55.548L2.88831 60.0113L4.06152 68.9381C5.93589 80.7911 7.99907 92.6306 10.9522 104.281C12.2602 110.147 13.9997 115.892 15.6179 121.677L16.2247 123.848L19.7307 134.541C20.1891 135.97 20.6612 137.4 21.2141 138.789C23.3581 144.398 25.3268 150.062 27.8215 155.523C29.0351 158.26 30.1274 161.065 31.4219 163.762L35.3594 171.84C43.221 187.522 52.876 202.274 64.1087 215.867C75.5167 229.338 88.8801 241.07 103.497 250.927C118.115 260.757 134.04 268.686 150.802 274.229C167.55 279.771 185.188 282.872 202.947 282.913C218.872 282.926 234.905 280.459 249.968 274.984C257.479 272.273 264.868 269.01 271.745 264.749C278.65 260.542 285.109 255.458 290.638 249.322C293.375 246.234 295.87 242.904 298.027 239.317C300.117 235.689 301.857 231.86 303.138 227.828C305.646 219.562 305.659 210.797 303.529 202.585C302.517 198.458 300.832 194.494 298.647 190.785C297.609 188.898 296.261 187.199 294.953 185.473L292.728 183.072C292.013 182.25 291.096 181.602 290.287 180.861C283.558 175.184 274.308 172.163 265.354 173.512C261.174 174.105 257.155 175.534 253.582 177.571C250.008 179.607 246.826 182.196 244.048 185.095C238.506 190.92 234.514 197.959 232.114 205.524C229.741 213.089 228.986 221.301 230.577 229.338C230.779 230.336 230.995 231.347 231.292 232.332L231.71 233.815L232.222 235.204C232.937 237.038 233.517 238.939 234.433 240.679C235.283 242.459 236.106 244.252 237.157 245.911L238.654 248.446C239.194 249.268 239.773 250.051 240.326 250.86C244.844 257.251 250.386 262.767 256.386 267.5C262.401 272.246 268.873 276.238 275.548 279.717C282.223 283.182 289.127 286.135 296.112 288.684L306.644 292.217L311.916 293.97C313.669 294.563 315.49 294.954 317.27 295.453C341.879 302.371 367.392 305.904 392.865 306.282C418.364 306.659 443.85 303.922 468.662 298.326C470.132 298.002 471.602 297.678 473.085 297.355C474.568 297.058 476.052 296.667 477.521 296.249C480.475 295.44 483.441 294.644 486.394 293.876C492.354 292.5 498.085 290.68 503.668 289.439L503.493 289.534C509.898 286.85 516.87 284.113 523.909 281.551C527.455 280.351 530.799 278.665 534.063 277.087C537.312 275.469 540.414 273.743 543.219 271.842C547.291 269.522 551.39 267.028 555.436 264.924C556.595 264.317 557.701 263.738 558.753 263.185C559.791 262.605 560.735 261.984 561.639 261.418C563.446 260.285 565.05 259.247 566.439 258.303C569.217 256.429 571.172 254.959 572.305 253.853C574.584 251.642 573.6 250.9 569.716 251.305C568.017 251.48 568.934 249.7 564.457 251.925C564.444 251.939 564.174 252.168 564.174 252.168L564.268 252.046C561.005 253.395 557.769 255.107 554.411 256.847C550.986 258.478 547.534 260.299 544.068 262.2C542.329 263.131 540.616 264.169 538.85 265.073C537.056 265.949 535.263 266.839 533.483 267.716C529.909 269.455 526.376 271.289 522.843 272.84C487.959 287.632 450.404 296.343 412.498 297.571C403.032 298.123 393.552 297.705 384.086 297.422L369.927 296.276C367.554 296.141 365.221 295.75 362.875 295.426L355.836 294.442C353.503 294.078 351.13 293.849 348.81 293.39L341.852 291.974C337.214 291.004 332.548 290.221 328.004 288.873C323.446 287.619 318.834 286.513 314.303 285.138L300.845 280.634C289.923 276.818 279.391 272.017 269.777 265.949C260.162 259.921 251.613 252.275 245.666 243.012C244.978 241.825 244.237 240.665 243.576 239.465L241.783 235.784C240.798 233.235 239.733 230.687 239.207 228.178C238.02 223.081 238.182 217.633 239.221 212.388C240.313 207.129 242.376 202.045 245.235 197.514C248.12 193.01 251.788 189.005 256.09 186.201C260.796 183.099 266.244 181.616 271.543 182.209L273.525 182.506L275.494 182.978L277.396 183.652L278.353 183.976C278.663 184.111 278.96 184.286 279.256 184.421L281.077 185.311L282.776 186.43L283.639 186.983L284.435 187.644L286.039 188.965C285.985 188.965 285.931 188.925 285.891 188.884Z" fill="white"/>
<path d="M577.996 249.525C578.333 248.204 578.778 246.748 578.994 245.44L579.52 242.109C575.636 242.985 571.483 244.078 567.815 244.738C567.586 244.779 567.356 244.63 567.127 244.576L567.154 244.549L564.295 245.035C563.594 245.143 562.879 245.224 562.165 245.264C558.848 245.44 555.598 245.466 552.213 246.235C551.687 246.343 550.797 246.303 550.554 249.337C550.298 252.505 550.811 254.393 551.849 254.339C554.33 254.191 556.771 253.503 559.198 253.975C560.992 254.312 562.785 254.285 564.565 254.124C565.01 254.083 565.455 254.029 565.9 253.975L566.965 253.827C567.262 253.786 567.437 253.76 567.572 253.773C567.801 253.8 568.031 253.76 568.273 253.706C568.287 253.921 568.192 254.299 568.058 254.582C567.99 254.704 567.896 254.825 567.801 254.906L567.761 254.933L567.68 255.175L567.518 255.688L567.195 256.726C566.763 258.102 566.372 259.49 566.143 260.893C565.752 263.334 566.116 265.896 565.994 268.377C565.967 268.957 566.021 269.604 564.781 269.941L564.74 269.928C565.994 270.818 563.311 271.155 565.226 272.139C565.239 272.368 565.401 272.638 565.253 272.84C564.579 273.757 565.617 274.202 569.109 274.445C569.878 274.499 570.849 274.755 571.415 274.593L571.361 274.566L571.415 274.58C573.856 274.297 572.885 273.272 573.06 272.53C573.923 268.862 574.584 265.141 575.326 261.446L575.946 258.034C576.054 257.454 576.175 256.942 576.324 256.308C576.539 255.283 576.796 254.245 577.079 253.166C577.389 252.02 578.09 250.604 578.009 249.498L577.996 249.525Z" fill="white"/>
</svg>
