<svg width="702" height="560" viewBox="0 0 702 560" fill="none" xmlns="http://www.w3.org/2000/svg">
<path d="M72.6571 112.388C72.1297 105.798 70.7525 105.857 69.9028 105.594C64.7641 104.253 59.3957 104.043 54.168 104.978C51.9118 105.271 48.3078 105.242 47.3994 105.3C47.1943 105.3 47.0186 105.623 46.9013 105.594C45.5652 105.492 44.2232 105.492 42.8871 105.594C42.6527 103.983 42.5355 102.372 42.3304 100.732C41.6857 96.1921 41.2462 91.6231 40.3086 87.0835C40.1328 86.1755 42.1838 85.0626 37.3784 84.5647H37.1733C35.5055 84.4397 33.8307 84.4397 32.1629 84.5647C24.6032 84.799 22.2298 85.3556 23.3725 86.4685C23.6362 86.7321 23.3725 87.0251 23.1381 87.318C22.734 88.0509 22.5509 88.8848 22.6107 89.7194C22.6107 90.5102 23.8705 91.2425 23.7826 91.9747C22.9907 94.9788 22.4613 98.046 22.2004 101.142C22.6065 103.886 23.3139 106.577 24.31 109.167C22.7863 109.342 21.3799 109.43 19.739 109.635C14.2304 110.309 8.72186 110.836 3.21322 111.832C2.09978 112.008 0.810527 109.987 0.107296 114.761C0.107296 114.761 0.107296 114.936 0.107296 114.966C-0.0357654 116.632 -0.0357654 118.307 0.107296 119.974C0.107296 127.559 0.810441 129.902 2.2169 128.76C2.50991 128.496 2.89076 128.76 3.24238 128.995C4.16782 129.382 5.1724 129.542 6.1725 129.463C7.13944 129.463 8.04779 128.204 8.92683 128.262C12.5655 129.036 16.2589 129.525 19.9735 129.727C22.283 129.501 24.5619 129.03 26.7714 128.321C26.885 130.61 27.4632 132.852 28.4709 134.911C29.9067 137.605 28.4708 140.592 28.1778 143.463C28.1778 144.663 32.1042 145.073 38.99 144.517C45.8758 143.96 45.5242 142.818 45.7879 142.115C47.1943 137.906 47.4672 133.401 46.5791 129.053C46.4893 127.786 46.4795 126.514 46.5497 125.246C51.2965 124.601 56.1312 125.011 60.7608 122.932C64.0718 121.438 67.6467 122.756 71.1042 122.932C72.5986 123.342 73.1845 119.388 72.6571 112.388Z" fill="white" fill-opacity="0.92"/>
<path d="M94.6916 243.716C94.3107 237.097 93.3144 237.126 92.6698 236.833C89.0969 235.306 85.1549 234.858 81.3302 235.545C81.0815 235.164 80.8659 234.762 80.6857 234.344C80.0488 231.461 79.7829 228.508 79.8945 225.558C79.6307 220.754 79.5429 215.951 78.9861 211.148C78.9861 210.181 81.0079 209.185 76.4076 208.219H76.2025C74.5516 208 72.886 207.912 71.2212 207.955C63.6322 207.545 61.2295 207.956 62.4308 209.186C62.6945 209.479 62.4309 209.771 62.1086 210.064C61.6612 210.808 61.4186 211.657 61.4054 212.525C61.4054 213.345 62.548 214.223 62.4015 214.955C61.3719 218.04 60.5977 221.204 60.0868 224.415C60.4879 228.09 61.1043 231.737 61.9328 235.34C61.9328 236.335 61.9328 237.331 62.1086 238.268C60.0444 238.708 57.9468 238.973 55.838 239.059C51.7652 239.528 47.6924 239.85 43.6488 240.582C42.7991 240.758 41.8613 238.679 41.3339 243.306C41.3197 243.374 41.3197 243.443 41.3339 243.511C41.2175 245.169 41.2175 246.832 41.3339 248.49C41.3339 256.075 41.8321 258.448 42.8869 257.276C43.092 257.013 43.3558 257.276 43.6195 257.54C44.2514 257.959 45.0011 258.164 45.7584 258.126C46.4616 258.126 47.1356 256.925 47.7802 257.042C50.4421 257.922 53.1784 258.559 55.9554 258.946C58.3065 258.655 60.6106 258.064 62.8118 257.189C62.9838 258.108 63.2388 259.01 63.5736 259.883C64.8043 262.812 63.222 265.74 62.6066 268.669C62.3722 269.899 66.3865 270.661 73.2723 270.661C80.1581 270.661 79.9531 269.46 80.2754 268.728C82.0033 264.44 82.6377 259.79 82.1214 255.197V254.963C83.4757 254.796 84.7873 254.378 85.9892 253.732C88.4212 252.385 91.0583 253.733 93.6368 254.289C94.633 254.641 95.0725 250.599 94.6916 243.716Z" fill="white" fill-opacity="0.92"/>
<path d="M186.14 168.18C185.349 161.619 183.971 161.736 183.21 161.531C177.999 160.374 172.598 160.374 167.387 161.531C165.16 161.883 161.527 162 160.618 162.088C160.413 162.088 160.237 162.439 160.12 162.439C158.669 162.406 157.217 162.505 155.784 162.732C155.139 158.544 154.612 154.327 153.674 150.168C153.469 149.26 155.491 148.118 150.744 147.708H150.539C148.875 147.665 147.21 147.743 145.557 147.942C137.998 148.322 135.624 148.879 136.767 149.992C137.031 150.255 136.767 150.548 136.533 150.871C136.157 151.612 135.994 152.443 136.064 153.272C136.064 154.063 137.353 154.766 137.294 155.498C136.535 158.513 136.055 161.591 135.859 164.694C135.927 165.577 136.084 166.45 136.328 167.301L133.046 167.77C127.566 168.678 122.029 169.41 116.549 170.698C115.436 170.962 114.059 168.97 113.619 173.627C113.619 173.627 113.619 173.803 113.619 173.832C113.558 175.506 113.646 177.182 113.883 178.841C114.293 186.397 114.996 188.74 116.344 187.451C116.637 187.158 117.018 187.451 117.37 187.627C118.302 187.985 119.309 188.105 120.3 187.978C121.237 187.978 122.116 186.631 122.996 186.69C126.689 187.289 130.419 187.632 134.159 187.715C136.286 187.419 138.377 186.909 140.4 186.192C141.133 190.204 140.664 194.334 142.803 198.2C144.297 200.865 143.008 203.881 142.803 206.781C142.803 207.952 146.759 208.304 153.615 207.601C160.472 206.898 160.12 205.785 160.384 205.082C161.703 200.851 161.895 196.349 160.941 192.02C160.648 190.175 160.677 187.246 160.618 186.426C160.618 186.25 160.267 186.133 160.296 186.016C160.427 184.799 160.427 183.572 160.296 182.355C165.189 181.418 170.229 181.711 174.947 179.426C178.199 177.815 181.832 178.958 185.349 179.163C186.521 179.133 186.96 175.033 186.14 168.18Z" fill="white" fill-opacity="0.92"/>
<path d="M181.746 30.6757C181.277 24.0567 180.251 24.1154 179.607 23.8225C175.883 22.3508 171.816 21.9748 167.886 22.7388C167.408 22.7707 166.928 22.7707 166.45 22.7388C166.45 21.5087 166.275 20.2787 166.157 19.0778C165.542 13.7182 165.132 8.35855 164.253 3.02816C164.077 1.94451 166.128 0.714414 161.323 0.0993692H161.117C159.45 -0.0331231 157.775 -0.0331231 156.107 0.0993692C148.518 0.0993692 146.145 0.685227 147.317 2.03247C147.58 2.32535 147.317 2.6767 147.053 3.02816C146.628 3.94276 146.446 4.95158 146.525 5.95694C146.525 6.86487 147.786 7.80218 147.698 8.62224C146.874 12.1389 146.316 15.712 146.027 19.312C146.226 21.6412 146.688 23.9406 147.404 26.1656C145.617 26.5464 143.801 26.5756 142.013 26.8099C137.882 27.3371 133.721 27.6884 129.619 28.5085C128.769 28.5085 127.773 26.6049 127.275 31.2324C127.289 31.3 127.289 31.3696 127.275 31.4372C127.162 33.095 127.162 34.7586 127.275 36.4164C127.275 44.002 127.89 46.3743 128.945 45.2028C129.15 44.9392 129.443 45.2027 129.707 45.4662C130.352 45.8771 131.111 46.0718 131.875 46.0225C132.578 46.0225 133.281 44.8217 133.926 44.9096C136.637 45.7667 139.423 46.3652 142.247 46.6965C144.836 46.3296 147.374 45.661 149.807 44.7047C150.423 49.4201 149.807 54.1938 151.917 58.8213C153.353 62.043 151.917 65.4698 151.595 68.8379C151.419 70.2144 155.492 70.8589 162.378 70.4196C169.263 69.9802 168.941 68.6623 169.205 67.8422C170.638 62.8866 170.949 57.6736 170.113 52.583C169.879 50.4157 169.966 46.9891 169.908 46.0519C169.908 45.8468 169.586 45.6713 169.615 45.5249C169.703 44.4724 169.703 43.4141 169.615 42.3616C170.703 42.1428 171.75 41.7579 172.721 41.2197C175.211 39.8431 177.907 41.2194 180.515 41.688C181.804 41.6001 182.215 37.5584 181.746 30.6757Z" fill="white" fill-opacity="0.92"/>
<path d="M299.769 105.389C298.509 98.8576 297.542 99.0334 296.839 98.7991C293.118 97.7521 289.168 97.8441 285.499 99.0629C283.946 99.4436 281.397 99.6193 280.694 99.7365C280.694 99.7365 280.489 100.059 280.372 100.059C279.055 100.063 277.745 100.24 276.474 100.586C276.152 99.2969 275.976 98.0084 275.654 96.749C274.775 93.0295 274.043 89.2805 272.724 85.6195C272.49 84.8873 274.453 83.7451 269.794 83.8037H269.589C267.928 83.9345 266.275 84.1494 264.637 84.4479C257.136 85.4437 254.821 86.1469 256.11 86.9377C256.374 87.1134 256.11 87.4063 255.905 87.6699C255.572 88.2984 255.449 89.0165 255.554 89.7199C255.554 90.3642 256.901 90.862 256.843 91.4478C256.25 94.0054 255.906 96.6146 255.817 99.2384C256.512 101.736 257.495 104.144 258.747 106.414C255.817 107.146 252.887 107.82 249.957 108.786C249.195 109.05 247.994 107.117 248.082 111.715V111.92C248.219 113.572 248.454 115.216 248.785 116.84C249.898 124.338 250.631 126.652 251.451 125.334C251.656 125.041 251.949 125.334 252.213 125.51C252.871 125.849 253.623 125.962 254.352 125.832C255.026 125.832 255.524 124.455 256.14 124.485C258.513 124.485 261.003 125.451 263.318 125.363L263.963 126.388C265.575 128.468 264.403 131.104 264.197 133.534C264.197 134.53 268.182 134.442 274.98 133.242C281.778 132.041 281.397 131.162 281.602 130.547C282.719 127.061 282.719 123.314 281.602 119.828L282.1 119.681C285.558 118.656 289.221 118.92 292.414 116.518C294.583 114.849 297.308 115.962 299.828 116.108C301.176 116.225 301.058 112.154 299.769 105.389Z" fill="white" fill-opacity="0.92"/>
<path d="M269.239 240.843C265.311 239.04 260.968 238.332 256.669 238.793C254.853 238.793 252.039 238.529 251.219 238.5C251.219 238.5 250.897 238.793 250.78 238.764C248.365 238.396 245.913 238.337 243.484 238.588C243.484 233.755 243.747 228.923 243.484 223.944C243.484 222.831 245.623 221.865 241.081 220.547H240.905C239.264 220.208 237.598 220.002 235.924 219.931C228.393 219.023 225.991 219.287 227.133 220.781C227.368 221.132 227.133 221.454 226.782 221.747C226.268 222.568 225.966 223.504 225.903 224.471C225.903 225.379 226.899 226.463 226.723 227.4C225.487 230.827 224.507 234.341 223.793 237.914C223.733 238.889 223.733 239.868 223.793 240.843C221.039 240.843 218.284 241.048 215.53 241.341C214.622 241.341 213.743 239.32 212.805 243.889C212.805 243.889 212.805 243.889 212.805 244.094C212.563 245.742 212.456 247.407 212.483 249.073C212.014 256.629 212.307 259.031 213.508 257.859C213.772 257.625 214.036 257.859 214.329 258.211C215.003 258.649 215.782 258.902 216.585 258.943C217.347 258.943 218.197 257.83 218.87 257.976C220.775 258.386 222.65 259.236 224.555 259.821C224.555 261.022 224.555 262.223 224.555 263.424C224.555 268.315 223.412 273.148 224.877 278.068C225.903 281.495 224.115 284.745 223.295 288.084C222.943 289.431 226.928 290.574 233.814 291.013C240.7 291.452 240.524 290.076 240.905 289.285C242.954 284.51 243.906 279.335 243.689 274.143C243.689 271.947 244.245 268.52 244.333 267.553C244.333 267.378 244.04 267.173 244.069 267.026C244.558 264.243 244.765 261.417 244.685 258.592C246.033 258.592 247.381 258.592 248.699 258.592C252.743 258.269 256.757 259.236 260.801 257.537C263.555 256.336 266.309 257.976 269.064 258.621C270.206 258.884 270.997 254.872 271.085 247.989C271.173 241.107 270.03 241.165 269.239 240.843Z" fill="white" fill-opacity="0.92"/>
<path d="M373.346 200.281C370.416 194.423 369.478 194.716 368.775 194.657C364.753 194.612 360.764 195.389 357.054 196.942C355.432 197.388 353.776 197.702 352.102 197.879C352.102 197.879 351.868 198.231 351.751 198.231C350.172 198.269 348.602 198.465 347.062 198.816C346.447 194.277 345.978 189.708 345.099 185.197C344.894 184.231 346.945 183.089 342.169 182.532H341.964C340.306 182.407 338.641 182.407 336.983 182.532C329.394 182.737 327.02 183.294 328.192 184.465C328.456 184.729 328.192 185.051 327.958 185.344C327.558 186.11 327.386 186.973 327.46 187.833C327.46 188.653 328.72 189.415 328.632 190.177C327.837 193.289 327.307 196.464 327.05 199.666C327.106 200.217 327.194 200.764 327.313 201.306C324.383 201.101 321.453 200.749 318.523 200.427C317.644 200.427 317.38 198.055 315.358 202.302V202.477C314.717 204.018 314.188 205.604 313.776 207.222C311.315 214.397 310.846 216.799 312.663 216.008C313.044 215.833 313.278 216.213 313.512 216.536C314.185 217.207 315.041 217.666 315.974 217.853C316.823 218.146 318.025 217.121 318.904 217.414C322.042 219.104 325.392 220.365 328.866 221.163C329.656 221.222 330.45 221.222 331.24 221.163C331.24 221.339 331.24 221.515 331.24 221.69C331.972 225.937 331.24 230.272 333.496 234.401C334.932 237.33 333.496 240.259 333.232 243.188C333.232 244.418 337.159 244.857 344.044 244.3C350.93 243.744 350.578 242.573 350.842 241.84C352.24 237.478 352.502 232.831 351.604 228.338C351.37 226.405 351.428 223.389 351.37 222.481C351.37 222.305 351.047 222.159 351.047 222.042C351.179 220.747 351.179 219.441 351.047 218.146C351.838 218.146 352.63 217.854 353.391 217.649C357.904 216.477 362.768 216.213 366.636 213.05C369.243 210.912 372.76 211.264 375.983 210.444C377.331 210.444 376.393 206.46 373.346 200.281Z" fill="white" fill-opacity="0.92"/>
<path d="M533.977 449.843C532.014 443.517 530.549 443.985 529.611 443.985C523.933 443.853 518.269 444.604 512.822 446.211C510.477 446.738 506.698 447.09 505.643 447.207C505.438 447.207 505.262 447.559 505.115 447.559C503.733 447.604 502.354 447.721 500.984 447.91C500.808 446.387 500.72 444.981 500.544 443.341C499.9 438.069 499.431 432.797 498.523 427.555C498.347 426.5 500.369 425.27 495.592 424.626H495.387C493.729 424.495 492.064 424.495 490.406 424.626C482.817 424.626 480.444 425.3 481.616 426.618C481.879 426.91 481.616 427.262 481.381 427.613C480.985 428.475 480.804 429.42 480.854 430.367C480.854 431.245 482.114 432.153 482.055 432.973C481.252 436.442 480.713 439.967 480.444 443.517C480.753 446.238 481.352 448.918 482.231 451.512C480.121 451.659 478.012 451.659 475.902 451.717C469.895 451.893 463.888 451.717 457.823 451.454C456.563 451.454 455.655 449.169 453.867 453.562V453.768C453.357 455.358 453.014 456.997 452.842 458.658C451.26 466.097 451.377 468.529 453.311 467.621C453.721 467.416 454.073 467.796 454.454 468.089C455.456 468.684 456.576 469.053 457.735 469.173C458.849 469.378 460.167 468.265 461.163 468.499C465.361 469.874 469.677 470.854 474.056 471.428C477.681 471.376 481.288 470.914 484.81 470.051C484.746 474.199 485.42 478.324 486.802 482.235C488.238 485.369 486.802 488.796 486.538 492.105C486.392 493.482 490.465 494.038 497.35 493.54C504.236 493.042 503.885 491.754 504.148 490.963C505.558 486.081 505.829 480.941 504.94 475.938C504.705 473.8 504.764 470.432 504.705 469.466C504.705 469.261 504.383 469.114 504.383 468.968C504.383 468.821 504.383 468.001 504.383 467.533H504.998C510.858 466.361 516.719 466.215 522.256 463.169C525.89 461.06 530.226 461.587 534.329 461.002C536.175 460.592 536.028 456.432 533.977 449.843Z" fill="white" fill-opacity="0.92"/>
<path d="M624.371 525.758C621.939 519.608 620.884 519.901 620.181 519.901C615.955 519.612 611.713 520.109 607.669 521.365C605.919 521.693 604.145 521.879 602.365 521.922C602.219 521.922 602.102 522.244 601.985 522.244C599.469 522.213 596.954 522.34 594.454 522.625C594.454 521.658 594.454 520.692 594.454 519.696C594.102 515.479 593.897 511.29 593.253 507.102C593.253 506.253 595.245 505.345 590.616 504.642H590.41C588.752 504.533 587.088 504.533 585.429 504.642C577.84 504.642 575.467 504.876 576.639 505.96C576.903 506.194 576.639 506.458 576.346 506.721C575.911 507.359 575.686 508.117 575.701 508.889C575.701 509.621 576.873 510.353 576.727 510.997C575.758 513.698 575.042 516.482 574.588 519.315C574.648 520.546 574.854 521.765 575.203 522.947C572.537 522.449 569.87 521.863 567.204 521.248C566.266 521.014 566.237 518.729 563.717 522.683L563.571 522.859C562.761 524.321 562.056 525.838 561.461 527.399C558.208 534.252 557.681 536.624 559.498 536.185C559.879 536.185 560.084 536.478 560.318 536.829C560.962 537.583 561.805 538.141 562.75 538.44C563.6 538.821 564.948 537.971 565.68 538.44C568.805 540.508 572.196 542.143 575.76 543.302C576.329 543.425 576.907 543.503 577.489 543.536C577.372 545.909 577.814 548.277 578.778 550.448C580.067 552.996 578.543 555.661 577.987 558.268C577.752 559.352 581.796 559.937 588.711 559.762C595.626 559.586 595.333 558.532 595.656 557.917C597.296 554.182 597.835 550.056 597.208 546.026C597.15 544.943 597.15 543.858 597.208 542.775C598.759 542.741 600.306 542.604 601.838 542.365C606.673 541.574 611.8 541.691 616.196 538.791C619.126 536.829 622.788 537.415 626.217 536.8C627.535 536.214 626.92 532.173 624.371 525.758Z" fill="white" fill-opacity="0.92"/>
<path d="M701.93 440.382C701.607 433.763 700.054 433.822 699.146 433.529C693.406 432.061 687.435 431.723 681.565 432.533C679.045 432.738 675.119 432.533 674.006 432.533C673.771 432.533 673.566 432.826 673.42 432.826C671.869 432.709 670.311 432.709 668.761 432.826C668.526 431.859 668.087 430.893 667.765 429.897C668.204 428.696 667.091 427.73 666.71 426.646C665.602 422.711 664.867 418.681 664.512 414.609C663.457 408.019 662.607 401.429 661.289 394.898C661.025 393.551 662.959 391.969 658.359 391.237H658.154C656.481 391.124 654.801 391.193 653.143 391.442C645.554 391.764 643.239 392.526 644.587 394.137C644.88 394.517 644.587 394.957 644.411 395.367C644.069 396.495 643.97 397.683 644.118 398.852C644.118 399.965 645.495 401.049 645.495 402.074C644.957 406.466 644.693 410.887 644.704 415.312C645.232 420.349 647.342 425.152 648.308 430.131C648.689 432.064 648.953 434.027 649.187 435.989C647.254 435.989 645.29 436.223 643.327 436.399C637.145 436.955 630.962 437.336 624.809 438.185C623.549 438.185 622.172 436.282 621.205 440.939C621.205 440.939 621.205 441.085 621.205 441.144C621.037 442.799 621.037 444.467 621.205 446.123C621.029 453.708 621.615 456.081 623.197 454.909C623.549 454.645 623.959 454.909 624.34 455.173C625.353 455.581 626.442 455.771 627.534 455.729C628.589 455.729 629.673 454.499 630.64 454.587C634.688 455.445 638.79 456.023 642.917 456.315C645.949 456.085 648.951 455.565 651.883 454.762C652.187 457.858 652.927 460.895 654.081 463.783C655.78 467.678 654.696 471.984 654.579 476.143C654.579 477.871 658.652 478.485 665.479 477.665C672.306 476.845 671.925 475.264 672.13 474.239C673.159 468.002 673.04 461.63 671.779 455.436C671.779 454.616 671.544 453.679 671.457 452.712H671.896C677.463 452.039 683.06 452.712 688.568 450.662C692.29 449.256 696.245 450.662 700.113 451.072C701.432 451.336 702.252 447.411 701.93 440.382Z" fill="white" fill-opacity="0.92"/>
</svg>
